<svg width="200" height="200" viewBox="0 0 200 200" fill="none" xmlns="http://www.w3.org/2000/svg">
<rect width="200" height="200" fill="#2C2C2C"/>
<path d="M23.1842 130.85C19.8409 130.85 16.8092 130.142 14.0892 128.725C11.3692 127.308 9.21591 125.24 7.62924 122.52C6.04257 119.743 5.24924 116.315 5.24924 112.235C5.24924 108.268 6.07091 104.868 7.71424 102.035C9.41424 99.145 11.6242 96.935 14.3442 95.405C17.1209 93.8183 20.1242 93.025 23.3542 93.025C26.7542 93.025 29.5592 93.7333 31.7692 95.15C33.9792 96.5667 35.6792 98.2667 36.8692 100.25L36.3592 101.61L37.2092 94.47H45.1142V130H36.5292V120.99L37.3792 123.115C37.1526 123.568 36.6709 124.22 35.9342 125.07C35.1976 125.92 34.2342 126.798 33.0442 127.705C31.8542 128.555 30.4092 129.292 28.7092 129.915C27.0659 130.538 25.2242 130.85 23.1842 130.85ZM25.4792 123.795C28.3126 123.795 30.6926 123.058 32.6192 121.585C34.6026 120.055 35.9059 117.987 36.5292 115.38V108.07C35.8492 105.747 34.4609 103.82 32.3642 102.29C30.3242 100.76 27.9442 99.995 25.2242 99.995C23.1842 99.995 21.3142 100.505 19.6142 101.525C17.9142 102.488 16.5542 103.877 15.5342 105.69C14.5142 107.447 14.0042 109.487 14.0042 111.81C14.0042 114.077 14.5142 116.117 15.5342 117.93C16.6109 119.743 18.0276 121.188 19.7842 122.265C21.5409 123.285 23.4392 123.795 25.4792 123.795ZM58.529 130V63.955H67.114V130H58.529ZM75.784 106.285L92.104 130H82.074L70.089 111.13L75.784 106.285ZM64.479 118.95L63.629 110.705L85.219 93.705L90.404 98.295L64.479 118.95ZM104.502 130V102.12H98.467V94.47H104.502V79.935C104.502 74.8917 105.692 70.9817 108.072 68.205C110.509 65.3717 114.05 63.955 118.697 63.955C119.944 63.955 121.304 64.1533 122.777 64.55C124.307 64.89 125.667 65.4567 126.857 66.25L123.202 72.455C122.692 71.8883 122.097 71.52 121.417 71.35C120.794 71.1233 120.17 71.01 119.547 71.01C117.564 71.01 115.977 71.7183 114.787 73.135C113.654 74.495 113.087 76.8183 113.087 80.105V94.47H124.307V102.12H113.087V130H104.502ZM142.216 94.47L142.981 102.205L142.556 101.525C143.859 98.8617 145.701 96.7933 148.081 95.32C150.518 93.79 153.294 93.025 156.411 93.025C159.358 93.025 161.823 93.705 163.806 95.065C165.789 96.425 167.008 98.3517 167.461 100.845L167.036 101.185C168.453 98.635 170.351 96.6517 172.731 95.235C175.111 93.7617 177.604 93.025 180.211 93.025C183.724 93.025 186.501 94.0167 188.541 96C190.581 97.9267 191.629 100.477 191.686 103.65V130H183.186V106.88C183.129 105.067 182.704 103.565 181.911 102.375C181.174 101.185 179.814 100.533 177.831 100.42C175.791 100.42 173.978 101.043 172.391 102.29C170.861 103.537 169.643 105.152 168.736 107.135C167.886 109.118 167.433 111.243 167.376 113.51V130H158.791V106.88C158.734 105.067 158.281 103.565 157.431 102.375C156.638 101.185 155.249 100.533 153.266 100.42C151.283 100.42 149.498 101.043 147.911 102.29C146.381 103.537 145.191 105.18 144.341 107.22C143.491 109.203 143.066 111.328 143.066 113.595V130H134.481V94.47H142.216Z" fill="#E1E1E1"/>
</svg>
